<?xml version="1.0" standalone="yes"?>
<svg xmlns="http://www.w3.org/2000/svg" width="512" height="512">
<path style="fill:#e8ae0f; stroke:none;" d="M0 0L0 512L512 512L512 0L0 0z"/>
<path style="fill:#ffffff; stroke:none;" d="M213 95L213 168L227 168C227 157.001 225.553 144.864 227.305 134C227.93 130.126 230.881 123.626 235.895 124.89C240.127 125.958 240.878 131.42 240.985 135C241.311 145.98 241 157.015 241 168L255 168L255 139C255 133.017 255.578 126.604 253.03 121.004C248.283 110.569 232.338 110.321 228 121C225.634 112.997 227 103.32 227 95L213 95M311 95L311 106L325 106C325 119.664 324.84 133.338 325.004 147C325.081 153.462 326.292 161.337 332.044 165.272C338.901 169.964 350.132 168 358 168L358 157C353.057 157 346.239 158.195 342.279 154.566C337.887 150.543 339 143.349 339 138L339 95L311 95M363 95L363 106L377 106C377 119.664 376.84 133.338 377.004 147C377.081 153.462 378.292 161.337 384.044 165.272C390.901 169.964 402.132 168 410 168L410 157C405.057 157 398.239 158.195 394.279 154.566C389.887 150.543 391 143.349 391 138L391 95L363 95M308 152C298.48 155.958 282.482 163.606 275.688 150.965C274.661 149.053 274.329 147.105 274 145L310 145C310 135.858 310.116 125.996 302.895 119.213C293.532 110.417 276.024 110.846 267.185 120.094C262.055 125.462 260.181 132.737 260.015 140C259.795 149.58 262.37 159.626 271.001 165.005C278.798 169.866 289.306 169.758 298 167.996C300.822 167.424 305.157 167.045 306.972 164.487C309.115 161.467 308 155.527 308 152M434 113.518C402.931 120.158 411.66 175.608 445 168.482C459.235 165.44 462 154.633 462 142C462 136.946 462.925 130.778 460.991 126C456.816 115.688 444.285 111.32 434 113.518z"/>
<path style="fill:#e8ae0f; stroke:none;" d="M274 134L296 134C293.844 120.439 277.236 121.613 274 134M436.043 124.862C427.381 128.459 427.712 143.743 430.563 150.985C432.526 155.969 437.676 159.18 442.957 156.987C451.623 153.388 451.305 138.301 448.437 131.015C446.523 126.156 441.276 122.689 436.043 124.862z"/>
<path style="fill:#345ef2; stroke:none;" d="M224 307L224 323L238 323L238 307L224 307M51 312L51 385L65 385L65 378C72.7575 387.937 87.3219 388.95 94.0949 376.985C100.038 366.487 100.024 348.292 93.5208 338.04C87.3177 328.261 71.36 326.783 66 338C63.6344 329.997 65 320.32 65 312L51 312M119 330.518C87.9312 337.158 96.6599 392.608 130 385.482C161.069 378.842 152.34 323.392 119 330.518M169 338C168.356 335.894 168.094 334.205 168 332L154 332L154 385L168 385C168 374.085 166.389 361.747 168.329 351C169.013 347.216 171.979 340.646 176.896 341.89C181.127 342.961 181.878 348.418 181.985 352C182.311 362.98 182 374.015 182 385L196 385L196 356C196 350.018 196.578 343.604 194.03 338.004C189.137 327.248 173.839 327.74 169 338M273 330.518C241.931 337.158 250.66 392.608 284 385.482C315.069 378.842 306.34 323.392 273 330.518M381 338C380.356 335.894 380.094 334.205 380 332L366 332L366 385L380 385C380 374.638 378.069 362.058 380.709 352C382.434 345.428 388.067 340.796 395 341.145C398.946 341.344 402.373 343.682 406 345C406 341.604 406.944 336.381 404.972 333.419C399.503 325.205 384.573 331.471 381 338M210 332L210 343L224 343L224 377C224 381.884 224.707 387.915 220.721 391.566C216.761 395.195 209.943 394 205 394L205 405C213.277 405 224.936 407.033 231.892 401.49C237.834 396.754 237.997 387.918 238 381L238 332L210 332M308 332L308 361C308 366.997 307.48 373.512 310.442 378.985C315.557 388.435 331.288 388.414 335 378C335.722 380.418 335.948 382.472 336 385L350 385L350 332L336 332C336 342.752 337.236 354.342 335.812 365C335.293 368.879 332.848 374.811 328.004 374.338C323.415 373.89 322.231 368.761 322.04 365C321.485 354.056 322 342.959 322 332L308 332z"/>
<path style="fill:#e8ae0f; stroke:none;" d="M72.0432 341.758C63.2645 345.026 63.8422 360.972 66.5633 367.996C68.1998 372.22 72.0819 376.057 76.9568 374.242C85.7355 370.974 85.1578 355.028 82.4367 348.004C80.8002 343.78 76.9181 339.943 72.0432 341.758M121.043 341.862C112.381 345.459 112.712 360.743 115.563 367.985C117.526 372.969 122.676 376.18 127.957 373.987C136.623 370.388 136.305 355.301 133.437 348.015C131.523 343.156 126.276 339.689 121.043 341.862M275.043 341.862C266.381 345.459 266.712 360.743 269.563 367.985C271.526 372.969 276.676 376.18 281.957 373.987C290.623 370.388 290.305 355.301 287.437 348.015C285.523 343.156 280.276 339.689 275.043 341.862z"/>
</svg>
